<svg id="visual" viewBox="0 0 900 600" width="900" height="600" xmlns="http://www.w3.org/2000/svg" xmlns:xlink="http://www.w3.org/1999/xlink" version="1.1"><g stroke-width="1" stroke-linejoin="bevel"><path d="M493 298L434 218L409 338Z" fill="#277297" stroke="#277297"></path><path d="M493 298L478 203L434 218Z" fill="#277297" stroke="#277297"></path><path d="M267 264L368 388L409 338Z" fill="#19435d" stroke="#19435d"></path><path d="M409 338L505 427L493 298Z" fill="#081a28" stroke="#081a28"></path><path d="M372 81L338 178L434 218Z" fill="#1d4e6b" stroke="#1d4e6b"></path><path d="M434 218L338 178L409 338Z" fill="#15384f" stroke="#15384f"></path><path d="M368 388L505 427L409 338Z" fill="#081a28" stroke="#081a28"></path><path d="M338 178L267 264L409 338Z" fill="#081a28" stroke="#081a28"></path><path d="M505 427L569 378L493 298Z" fill="#15384f" stroke="#15384f"></path><path d="M493 298L593 193L478 203Z" fill="#19435d" stroke="#19435d"></path><path d="M618 283L593 193L493 298Z" fill="#205a7a" stroke="#205a7a"></path><path d="M478 203L372 81L434 218Z" fill="#246688" stroke="#246688"></path><path d="M569 378L618 283L493 298Z" fill="#19435d" stroke="#19435d"></path><path d="M593 193L539 113L478 203Z" fill="#081a28" stroke="#081a28"></path><path d="M267 264L265 390L368 388Z" fill="#081a28" stroke="#081a28"></path><path d="M368 388L477 477L505 427Z" fill="#15384f" stroke="#15384f"></path><path d="M397 500L477 477L368 388Z" fill="#081a28" stroke="#081a28"></path><path d="M660 506L693 400L569 378Z" fill="#112e42" stroke="#112e42"></path><path d="M372 81L307 121L338 178Z" fill="#081a28" stroke="#081a28"></path><path d="M338 178L182 169L267 264Z" fill="#0c2435" stroke="#0c2435"></path><path d="M539 113L372 81L478 203Z" fill="#19435d" stroke="#19435d"></path><path d="M315 506L397 500L368 388Z" fill="#112e42" stroke="#112e42"></path><path d="M569 378L669 292L618 283Z" fill="#081a28" stroke="#081a28"></path><path d="M618 283L687 193L593 193Z" fill="#081a28" stroke="#081a28"></path><path d="M593 193L616 104L539 113Z" fill="#246688" stroke="#246688"></path><path d="M693 400L669 292L569 378Z" fill="#112e42" stroke="#112e42"></path><path d="M267 264L199 327L265 390Z" fill="#246688" stroke="#246688"></path><path d="M139 230L199 327L267 264Z" fill="#19435d" stroke="#19435d"></path><path d="M199 327L213 402L265 390Z" fill="#081a28" stroke="#081a28"></path><path d="M265 390L315 506L368 388Z" fill="#081a28" stroke="#081a28"></path><path d="M663 113L616 104L593 193Z" fill="#205a7a" stroke="#205a7a"></path><path d="M479 0L389 0L372 81Z" fill="#277297" stroke="#277297"></path><path d="M193 499L315 506L265 390Z" fill="#15384f" stroke="#15384f"></path><path d="M669 292L687 193L618 283Z" fill="#1d4e6b" stroke="#1d4e6b"></path><path d="M162 69L182 169L307 121Z" fill="#112e42" stroke="#112e42"></path><path d="M307 121L182 169L338 178Z" fill="#00101c" stroke="#00101c"></path><path d="M479 0L372 81L539 113Z" fill="#277297" stroke="#277297"></path><path d="M372 81L270 0L307 121Z" fill="#246688" stroke="#246688"></path><path d="M565 0L479 0L539 113Z" fill="#205a7a" stroke="#205a7a"></path><path d="M687 193L663 113L593 193Z" fill="#297ea6" stroke="#297ea6"></path><path d="M616 104L565 0L539 113Z" fill="#0c2435" stroke="#0c2435"></path><path d="M605 533L569 378L505 427Z" fill="#277297" stroke="#277297"></path><path d="M815 326L767 164L687 193Z" fill="#15384f" stroke="#15384f"></path><path d="M182 169L139 230L267 264Z" fill="#246688" stroke="#246688"></path><path d="M199 327L132 363L213 402Z" fill="#246688" stroke="#246688"></path><path d="M477 477L605 533L505 427Z" fill="#112e42" stroke="#112e42"></path><path d="M518 600L605 533L477 477Z" fill="#00101c" stroke="#00101c"></path><path d="M402 600L477 477L397 500Z" fill="#0c2435" stroke="#0c2435"></path><path d="M718 0L565 0L616 104Z" fill="#112e42" stroke="#112e42"></path><path d="M91 279L132 363L199 327Z" fill="#297ea6" stroke="#297ea6"></path><path d="M213 402L193 499L265 390Z" fill="#205a7a" stroke="#205a7a"></path><path d="M605 533L660 506L569 378Z" fill="#1d4e6b" stroke="#1d4e6b"></path><path d="M281 600L402 600L315 506Z" fill="#112e42" stroke="#112e42"></path><path d="M315 506L402 600L397 500Z" fill="#205a7a" stroke="#205a7a"></path><path d="M389 0L270 0L372 81Z" fill="#205a7a" stroke="#205a7a"></path><path d="M0 267L91 279L0 227Z" fill="#112e42" stroke="#112e42"></path><path d="M132 363L193 499L213 402Z" fill="#1d4e6b" stroke="#1d4e6b"></path><path d="M402 600L518 600L477 477Z" fill="#297ea6" stroke="#297ea6"></path><path d="M605 533L628 600L660 506Z" fill="#246688" stroke="#246688"></path><path d="M82 103L139 230L182 169Z" fill="#0c2435" stroke="#0c2435"></path><path d="M139 230L91 279L199 327Z" fill="#00101c" stroke="#00101c"></path><path d="M123 600L185 600L193 499Z" fill="#00101c" stroke="#00101c"></path><path d="M218 0L162 69L307 121Z" fill="#15384f" stroke="#15384f"></path><path d="M270 0L218 0L307 121Z" fill="#246688" stroke="#246688"></path><path d="M687 193L767 164L663 113Z" fill="#081a28" stroke="#081a28"></path><path d="M663 113L718 0L616 104Z" fill="#081a28" stroke="#081a28"></path><path d="M815 326L687 193L669 292Z" fill="#112e42" stroke="#112e42"></path><path d="M794 380L669 292L693 400Z" fill="#246688" stroke="#246688"></path><path d="M193 499L281 600L315 506Z" fill="#112e42" stroke="#112e42"></path><path d="M767 164L773 127L663 113Z" fill="#15384f" stroke="#15384f"></path><path d="M518 600L628 600L605 533Z" fill="#1d4e6b" stroke="#1d4e6b"></path><path d="M776 466L693 400L660 506Z" fill="#081a28" stroke="#081a28"></path><path d="M776 466L794 380L693 400Z" fill="#00101c" stroke="#00101c"></path><path d="M767 164L900 171L773 127Z" fill="#246688" stroke="#246688"></path><path d="M794 380L815 326L669 292Z" fill="#277297" stroke="#277297"></path><path d="M717 600L776 466L660 506Z" fill="#205a7a" stroke="#205a7a"></path><path d="M900 367L900 320L815 326Z" fill="#297ea6" stroke="#297ea6"></path><path d="M68 0L82 103L162 69Z" fill="#297ea6" stroke="#297ea6"></path><path d="M162 69L82 103L182 169Z" fill="#00101c" stroke="#00101c"></path><path d="M773 127L718 0L663 113Z" fill="#297ea6" stroke="#297ea6"></path><path d="M73 510L193 499L132 363Z" fill="#277297" stroke="#277297"></path><path d="M193 499L185 600L281 600Z" fill="#15384f" stroke="#15384f"></path><path d="M0 373L132 363L91 279Z" fill="#081a28" stroke="#081a28"></path><path d="M0 373L73 510L132 363Z" fill="#081a28" stroke="#081a28"></path><path d="M628 600L717 600L660 506Z" fill="#246688" stroke="#246688"></path><path d="M0 227L91 279L139 230Z" fill="#297ea6" stroke="#297ea6"></path><path d="M82 103L0 227L139 230Z" fill="#0c2435" stroke="#0c2435"></path><path d="M0 267L0 373L91 279Z" fill="#112e42" stroke="#112e42"></path><path d="M73 510L123 600L193 499Z" fill="#205a7a" stroke="#205a7a"></path><path d="M218 0L68 0L162 69Z" fill="#15384f" stroke="#15384f"></path><path d="M82 103L0 78L0 227Z" fill="#19435d" stroke="#19435d"></path><path d="M900 367L794 380L900 484Z" fill="#205a7a" stroke="#205a7a"></path><path d="M900 367L815 326L794 380Z" fill="#205a7a" stroke="#205a7a"></path><path d="M815 326L900 171L767 164Z" fill="#1d4e6b" stroke="#1d4e6b"></path><path d="M773 127L832 0L718 0Z" fill="#112e42" stroke="#112e42"></path><path d="M717 600L778 600L776 466Z" fill="#205a7a" stroke="#205a7a"></path><path d="M900 484L794 380L776 466Z" fill="#246688" stroke="#246688"></path><path d="M68 0L0 78L82 103Z" fill="#112e42" stroke="#112e42"></path><path d="M900 320L900 171L815 326Z" fill="#277297" stroke="#277297"></path><path d="M900 89L832 0L773 127Z" fill="#246688" stroke="#246688"></path><path d="M0 373L0 513L73 510Z" fill="#112e42" stroke="#112e42"></path><path d="M73 510L0 600L123 600Z" fill="#1d4e6b" stroke="#1d4e6b"></path><path d="M900 171L900 89L773 127Z" fill="#15384f" stroke="#15384f"></path><path d="M778 600L900 484L776 466Z" fill="#112e42" stroke="#112e42"></path><path d="M68 0L0 0L0 78Z" fill="#15384f" stroke="#15384f"></path><path d="M0 513L0 600L73 510Z" fill="#19435d" stroke="#19435d"></path><path d="M900 89L900 0L832 0Z" fill="#15384f" stroke="#15384f"></path><path d="M778 600L900 600L900 484Z" fill="#277297" stroke="#277297"></path></g></svg>